<svg width="19" height="24" viewBox="0 0 19 24" fill="none" xmlns="http://www.w3.org/2000/svg">
<path d="M5.14286 17.5714V18.4286C5.14286 18.5446 5.10045 18.6451 5.01562 18.7299C4.9308 18.8147 4.83036 18.8571 4.71429 18.8571H3.85714C3.74107 18.8571 3.64062 18.8147 3.5558 18.7299C3.47098 18.6451 3.42857 18.5446 3.42857 18.4286V17.5714C3.42857 17.4554 3.47098 17.3549 3.5558 17.2701C3.64062 17.1853 3.74107 17.1429 3.85714 17.1429H4.71429C4.83036 17.1429 4.9308 17.1853 5.01562 17.2701C5.10045 17.3549 5.14286 17.4554 5.14286 17.5714ZM5.14286 14.1429V15C5.14286 15.1161 5.10045 15.2165 5.01562 15.3013C4.9308 15.3862 4.83036 15.4286 4.71429 15.4286H3.85714C3.74107 15.4286 3.64062 15.3862 3.5558 15.3013C3.47098 15.2165 3.42857 15.1161 3.42857 15V14.1429C3.42857 14.0268 3.47098 13.9263 3.5558 13.8415C3.64062 13.7567 3.74107 13.7143 3.85714 13.7143H4.71429C4.83036 13.7143 4.9308 13.7567 5.01562 13.8415C5.10045 13.9263 5.14286 14.0268 5.14286 14.1429ZM8.57143 14.1429V15C8.57143 15.1161 8.52902 15.2165 8.4442 15.3013C8.35938 15.3862 8.25893 15.4286 8.14286 15.4286H7.28571C7.16964 15.4286 7.0692 15.3862 6.98438 15.3013C6.89955 15.2165 6.85714 15.1161 6.85714 15V14.1429C6.85714 14.0268 6.89955 13.9263 6.98438 13.8415C7.0692 13.7567 7.16964 13.7143 7.28571 13.7143H8.14286C8.25893 13.7143 8.35938 13.7567 8.4442 13.8415C8.52902 13.9263 8.57143 14.0268 8.57143 14.1429ZM5.14286 10.7143V11.5714C5.14286 11.6875 5.10045 11.7879 5.01562 11.8728C4.9308 11.9576 4.83036 12 4.71429 12H3.85714C3.74107 12 3.64062 11.9576 3.5558 11.8728C3.47098 11.7879 3.42857 11.6875 3.42857 11.5714V10.7143C3.42857 10.5982 3.47098 10.4978 3.5558 10.4129C3.64062 10.3281 3.74107 10.2857 3.85714 10.2857H4.71429C4.83036 10.2857 4.9308 10.3281 5.01562 10.4129C5.10045 10.4978 5.14286 10.5982 5.14286 10.7143ZM15.4286 17.5714V18.4286C15.4286 18.5446 15.3862 18.6451 15.3013 18.7299C15.2165 18.8147 15.1161 18.8571 15 18.8571H14.1429C14.0268 18.8571 13.9263 18.8147 13.8415 18.7299C13.7567 18.6451 13.7143 18.5446 13.7143 18.4286V17.5714C13.7143 17.4554 13.7567 17.3549 13.8415 17.2701C13.9263 17.1853 14.0268 17.1429 14.1429 17.1429H15C15.1161 17.1429 15.2165 17.1853 15.3013 17.2701C15.3862 17.3549 15.4286 17.4554 15.4286 17.5714ZM12 14.1429V15C12 15.1161 11.9576 15.2165 11.8728 15.3013C11.7879 15.3862 11.6875 15.4286 11.5714 15.4286H10.7143C10.5982 15.4286 10.4978 15.3862 10.4129 15.3013C10.3281 15.2165 10.2857 15.1161 10.2857 15V14.1429C10.2857 14.0268 10.3281 13.9263 10.4129 13.8415C10.4978 13.7567 10.5982 13.7143 10.7143 13.7143H11.5714C11.6875 13.7143 11.7879 13.7567 11.8728 13.8415C11.9576 13.9263 12 14.0268 12 14.1429ZM8.57143 10.7143V11.5714C8.57143 11.6875 8.52902 11.7879 8.4442 11.8728C8.35938 11.9576 8.25893 12 8.14286 12H7.28571C7.16964 12 7.0692 11.9576 6.98438 11.8728C6.89955 11.7879 6.85714 11.6875 6.85714 11.5714V10.7143C6.85714 10.5982 6.89955 10.4978 6.98438 10.4129C7.0692 10.3281 7.16964 10.2857 7.28571 10.2857H8.14286C8.25893 10.2857 8.35938 10.3281 8.4442 10.4129C8.52902 10.4978 8.57143 10.5982 8.57143 10.7143ZM15.4286 14.1429V15C15.4286 15.1161 15.3862 15.2165 15.3013 15.3013C15.2165 15.3862 15.1161 15.4286 15 15.4286H14.1429C14.0268 15.4286 13.9263 15.3862 13.8415 15.3013C13.7567 15.2165 13.7143 15.1161 13.7143 15V14.1429C13.7143 14.0268 13.7567 13.9263 13.8415 13.8415C13.9263 13.7567 14.0268 13.7143 14.1429 13.7143H15C15.1161 13.7143 15.2165 13.7567 15.3013 13.8415C15.3862 13.9263 15.4286 14.0268 15.4286 14.1429ZM12 10.7143V11.5714C12 11.6875 11.9576 11.7879 11.8728 11.8728C11.7879 11.9576 11.6875 12 11.5714 12H10.7143C10.5982 12 10.4978 11.9576 10.4129 11.8728C10.3281 11.7879 10.2857 11.6875 10.2857 11.5714V10.7143C10.2857 10.5982 10.3281 10.4978 10.4129 10.4129C10.4978 10.3281 10.5982 10.2857 10.7143 10.2857H11.5714C11.6875 10.2857 11.7879 10.3281 11.8728 10.4129C11.9576 10.4978 12 10.5982 12 10.7143ZM15.4286 10.7143V11.5714C15.4286 11.6875 15.3862 11.7879 15.3013 11.8728C15.2165 11.9576 15.1161 12 15 12H14.1429C14.0268 12 13.9263 11.9576 13.8415 11.8728C13.7567 11.7879 13.7143 11.6875 13.7143 11.5714V10.7143C13.7143 10.5982 13.7567 10.4978 13.8415 10.4129C13.9263 10.3281 14.0268 10.2857 14.1429 10.2857H15C15.1161 10.2857 15.2165 10.3281 15.3013 10.4129C15.3862 10.4978 15.4286 10.5982 15.4286 10.7143ZM12 22.2857H17.1429V6.85714H13.7143V7.28571C13.7143 7.64286 13.5893 7.94643 13.3393 8.19643C13.0893 8.44643 12.7857 8.57143 12.4286 8.57143H6.42857C6.07143 8.57143 5.76786 8.44643 5.51786 8.19643C5.26786 7.94643 5.14286 7.64286 5.14286 7.28571V6.85714H1.71429V22.2857H6.85714V19.2857C6.85714 19.1696 6.89955 19.0692 6.98438 18.9844C7.0692 18.8996 7.16964 18.8571 7.28571 18.8571H11.5714C11.6875 18.8571 11.7879 18.8996 11.8728 18.9844C11.9576 19.0692 12 19.1696 12 19.2857V22.2857ZM12 6.42857V2.14286C12 2.02679 11.9576 1.92634 11.8728 1.84152C11.7879 1.7567 11.6875 1.71429 11.5714 1.71429H10.7143C10.5982 1.71429 10.4978 1.7567 10.4129 1.84152C10.3281 1.92634 10.2857 2.02679 10.2857 2.14286V3.42857H8.57143V2.14286C8.57143 2.02679 8.52902 1.92634 8.4442 1.84152C8.35938 1.7567 8.25893 1.71429 8.14286 1.71429H7.28571C7.16964 1.71429 7.0692 1.7567 6.98438 1.84152C6.89955 1.92634 6.85714 2.02679 6.85714 2.14286V6.42857C6.85714 6.54464 6.89955 6.64509 6.98438 6.72991C7.0692 6.81473 7.16964 6.85714 7.28571 6.85714H8.14286C8.25893 6.85714 8.35938 6.81473 8.4442 6.72991C8.52902 6.64509 8.57143 6.54464 8.57143 6.42857V5.14286H10.2857V6.42857C10.2857 6.54464 10.3281 6.64509 10.4129 6.72991C10.4978 6.81473 10.5982 6.85714 10.7143 6.85714H11.5714C11.6875 6.85714 11.7879 6.81473 11.8728 6.72991C11.9576 6.64509 12 6.54464 12 6.42857ZM18.8571 6V23.1429C18.8571 23.375 18.7723 23.5759 18.6027 23.7455C18.433 23.9152 18.2321 24 18 24H0.857143C0.625 24 0.424107 23.9152 0.254464 23.7455C0.0848214 23.5759 0 23.375 0 23.1429V6C0 5.76786 0.0848214 5.56696 0.254464 5.39732C0.424107 5.22768 0.625 5.14286 0.857143 5.14286H5.14286V1.28571C5.14286 0.928571 5.26786 0.625 5.51786 0.375C5.76786 0.125 6.07143 0 6.42857 0H12.4286C12.7857 0 13.0893 0.125 13.3393 0.375C13.5893 0.625 13.7143 0.928571 13.7143 1.28571V5.14286H18C18.2321 5.14286 18.433 5.22768 18.6027 5.39732C18.7723 5.56696 18.8571 5.76786 18.8571 6Z" fill="#0F2557"/>
</svg>
